<svg width="12" height="18" viewBox="0 0 12 18" fill="none" xmlns="http://www.w3.org/2000/svg">
<path fill-rule="evenodd" clip-rule="evenodd" d="M4.08956 17.0442H7.72977C7.88875 17.0442 8.01752 16.9154 8.01752 16.7564C8.01752 16.5975 7.88875 16.4687 7.72977 16.4687H4.08956C3.93057 16.4687 3.8018 16.5975 3.8018 16.7564C3.8018 16.9154 3.93057 17.0442 4.08956 17.0442ZM3.35146 15.5781H8.46775C8.62674 15.5781 8.75551 15.4493 8.75551 15.2903C8.75551 15.1313 8.62674 15.0026 8.46775 15.0026H3.35146C3.19247 15.0026 3.0637 15.1313 3.0637 15.2903C3.0637 15.4493 3.19247 15.5781 3.35146 15.5781ZM3.33923 14.1105C3.28384 14.104 3.0637 14.0609 3.0637 13.8242C3.0637 11.93 2.522 10.0761 1.50261 8.47971C0.986797 7.67255 0.688965 6.71287 0.688965 5.68482C0.688965 2.80356 3.02768 0.464844 5.90894 0.464844C8.79021 0.464844 11.1289 2.80356 11.1289 5.68482C11.1289 6.71283 10.8311 7.67178 10.3175 8.48045H10.3167C9.29734 10.0768 8.75564 11.9306 8.75564 13.8242C8.75564 13.9731 8.64269 14.0954 8.49738 14.1098C8.49522 14.1105 8.48803 14.1112 8.47148 14.1119C8.48012 14.1112 8.48875 14.1112 8.49738 14.1098H8.49954L8.45998 14.1127C8.45854 14.1119 8.45638 14.1119 8.45422 14.1119H3.35156L3.33923 14.1105ZM8.18443 13.5364H3.63574C3.58322 11.6329 3.01418 9.77762 1.98761 8.17041C1.52935 7.45174 1.26461 6.59926 1.26461 5.68491C1.26461 3.1217 3.34586 1.04045 5.90907 1.04045C8.47228 1.04045 10.5535 3.1217 10.5535 5.68491C10.5535 6.59926 10.2888 7.45248 9.83126 8.17188C8.8054 9.7783 8.23622 11.6336 8.18443 13.5364ZM5.93485 8.76029C5.93989 8.75813 5.94493 8.75597 5.94996 8.75309C7.17654 8.50779 8.01961 8.03802 8.43988 7.35099C8.88086 6.63087 8.87942 5.64962 8.30103 4.37046L8.28089 4.33161L8.25571 4.29852C8.2442 4.28413 8.23125 4.27118 8.21686 4.26039L8.17585 4.23305L8.13845 4.21579C8.12118 4.20931 8.10392 4.20428 8.08593 4.2014L8.03773 4.19708L7.9996 4.19924C7.12913 4.29852 6.47304 4.53089 6.00896 4.87187C5.49676 4.19348 4.58096 3.74601 3.18681 3.59925C3.12639 3.59278 3.06739 3.60573 3.01776 3.63378L3.00768 3.63954C2.95877 3.66831 2.91848 3.71292 2.8933 3.76903C2.24152 5.23371 2.2437 6.35452 2.7523 7.17314C3.25588 7.98317 4.2803 8.51985 5.76874 8.78028C5.82701 8.79035 5.8845 8.78259 5.93485 8.76029ZM6.25714 8.09197C7.06646 7.8783 7.6463 7.54596 7.94916 7.05101C8.28872 6.49565 8.25707 5.75466 7.85924 4.79794C7.17726 4.89721 6.66001 5.08713 6.29886 5.37417C6.601 6.08781 6.58232 7.00204 6.25714 8.09197ZM5.69314 5.44036C5.32696 4.76773 4.55218 4.35839 3.33638 4.19653C2.86517 5.33749 2.83495 6.21664 3.24142 6.86987C3.60255 7.45113 4.28886 7.83817 5.24716 8.08205L3.86736 5.69213C3.78751 5.55473 3.83498 5.37848 3.97239 5.29935C4.10979 5.21949 4.28604 5.26697 4.36518 5.40438L5.7457 7.79355C6.01331 6.8425 6.02123 6.05406 5.69894 5.45115L5.69314 5.44036Z" fill="#3A643B"/>
</svg>
