<svg width="35" height="34" viewBox="0 0 35 34" fill="none" xmlns="http://www.w3.org/2000/svg">
<circle cx="17.5" cy="17" r="17" fill="#E9F1E0"/>
<g clip-path="url(#clip0_2011_2141)">
<path fill-rule="evenodd" clip-rule="evenodd" d="M16.3848 25.1844H19.6192C19.7605 25.1844 19.8749 25.07 19.8749 24.9287C19.8749 24.7874 19.7605 24.673 19.6192 24.673H16.3848C16.2435 24.673 16.1291 24.7874 16.1291 24.9287C16.1291 25.07 16.2435 25.1844 16.3848 25.1844ZM15.729 23.8817H20.275C20.4162 23.8817 20.5307 23.7673 20.5307 23.626C20.5307 23.4848 20.4162 23.3703 20.275 23.3703H15.729C15.5877 23.3703 15.4733 23.4848 15.4733 23.626C15.4733 23.7673 15.5877 23.8817 15.729 23.8817ZM15.7181 22.5777C15.6689 22.572 15.4733 22.5336 15.4733 22.3233C15.4733 20.6403 14.992 18.993 14.0862 17.5746C13.6279 16.8574 13.3633 16.0047 13.3633 15.0912C13.3633 12.5311 15.4413 10.4531 18.0014 10.4531C20.5615 10.4531 22.6395 12.5311 22.6395 15.0912C22.6395 16.0047 22.3749 16.8567 21.9185 17.5752H21.9178C21.0121 18.9936 20.5308 20.6408 20.5308 22.3233C20.5308 22.4556 20.4304 22.5643 20.3013 22.5771C20.2994 22.5777 20.293 22.5784 20.2783 22.579C20.286 22.5784 20.2936 22.5784 20.3013 22.5771H20.3032L20.2681 22.5796C20.2668 22.579 20.2649 22.579 20.2629 22.579H15.7291L15.7181 22.5777ZM20.0232 22.0676H15.9816C15.9349 20.3763 15.4293 18.7278 14.5172 17.2998C14.11 16.6612 13.8748 15.9037 13.8748 15.0913C13.8748 12.8138 15.724 10.9646 18.0015 10.9646C20.279 10.9646 22.1283 12.8138 22.1283 15.0913C22.1283 15.9037 21.893 16.6618 21.4865 17.3011C20.575 18.7284 20.0692 20.3769 20.0232 22.0676ZM18.0244 17.8239C18.0289 17.822 18.0334 17.82 18.0378 17.8175C19.1277 17.5995 19.8768 17.1821 20.2502 16.5717C20.642 15.9318 20.6408 15.06 20.1268 13.9234L20.1089 13.8889L20.0866 13.8595C20.0763 13.8467 20.0648 13.8352 20.052 13.8256L20.0156 13.8013L19.9824 13.786C19.967 13.7802 19.9517 13.7757 19.9357 13.7732L19.8929 13.7693L19.859 13.7713C19.0856 13.8595 18.5026 14.0659 18.0903 14.3689C17.6352 13.7661 16.8214 13.3685 15.5827 13.2381C15.529 13.2324 15.4766 13.2439 15.4325 13.2688L15.4235 13.2739C15.3801 13.2995 15.3443 13.3391 15.3219 13.389C14.7428 14.6904 14.7447 15.6863 15.1966 16.4136C15.6441 17.1334 16.5543 17.6102 17.8768 17.8416C17.9286 17.8506 17.9797 17.8437 18.0244 17.8239ZM18.3108 17.2301C19.0299 17.0402 19.5451 16.7449 19.8142 16.3051C20.1159 15.8117 20.0878 15.1533 19.7343 14.3032C19.1283 14.3914 18.6687 14.5602 18.3478 14.8152C18.6163 15.4493 18.5997 16.2616 18.3108 17.2301ZM17.8096 14.874C17.4843 14.2764 16.7959 13.9127 15.7156 13.7688C15.2969 14.7826 15.2701 15.5638 15.6312 16.1442C15.9521 16.6607 16.5619 17.0046 17.4134 17.2212L16.1874 15.0977C16.1164 14.9756 16.1586 14.819 16.2807 14.7487C16.4028 14.6778 16.5594 14.72 16.6297 14.8421L17.8563 16.9649C18.0941 16.1199 18.1012 15.4193 17.8148 14.8836L17.8096 14.874Z" fill="#A0A0A0"/>
</g>
<defs>
<clipPath id="clip0_2011_2141">
<rect width="18" height="18" fill="white" transform="translate(9 8)"/>
</clipPath>
</defs>
</svg>
