<svg width="15" height="14" viewBox="0 0 15 14" fill="none" xmlns="http://www.w3.org/2000/svg">
<path d="M5.42125 2.22873H13.7932C13.9661 2.22873 14.0958 2.09905 14.0958 1.92613C14.0958 1.75322 13.9661 1.62354 13.7932 1.62354H5.42125C5.24834 1.62354 5.11865 1.75322 5.11865 1.92613C5.11865 2.09905 5.24834 2.22873 5.42125 2.22873Z" fill="#3A643B"/>
<path d="M2.02158 0.311035C1.12819 0.311035 0.407715 1.03151 0.407715 1.9249C0.407715 2.81829 1.12819 3.53877 2.02158 3.53877C2.91497 3.53877 3.63545 2.81829 3.63545 1.9249C3.63545 1.03151 2.91497 0.311035 2.02158 0.311035ZM2.02158 2.93357C1.45961 2.93357 1.01291 2.48687 1.01291 1.9249C1.01291 1.36293 1.45961 0.916235 2.02158 0.916235C2.58355 0.916235 3.03025 1.36293 3.03025 1.9249C3.03025 2.48687 2.56914 2.93357 2.02158 2.93357Z" fill="#3A643B"/>
<path d="M13.7932 6.65088H5.42125C5.24834 6.65088 5.11865 6.78056 5.11865 6.95348C5.11865 7.12639 5.24834 7.25608 5.42125 7.25608H13.7932C13.9661 7.25608 14.0958 7.12639 14.0958 6.95348C14.0958 6.78056 13.9661 6.65088 13.7932 6.65088Z" fill="#3A643B"/>
<path d="M2.02158 5.34229C1.12819 5.34229 0.407715 6.06276 0.407715 6.95615C0.407715 7.84954 1.12819 8.57002 2.02158 8.57002C2.91497 8.57002 3.63545 7.84954 3.63545 6.95615C3.63545 6.06276 2.91497 5.34229 2.02158 5.34229ZM2.02158 7.96482C1.45961 7.96482 1.01291 7.51812 1.01291 6.95615C1.01291 6.39418 1.45961 5.94748 2.02158 5.94748C2.58355 5.94748 3.03025 6.39418 3.03025 6.95615C3.03025 7.51812 2.56914 7.96482 2.02158 7.96482Z" fill="#3A643B"/>
<path d="M13.7932 11.6821H5.42125C5.24834 11.6821 5.11865 11.8118 5.11865 11.9847C5.11865 12.1576 5.24834 12.2873 5.42125 12.2873H13.7932C13.9661 12.2873 14.0958 12.1576 14.0958 11.9847C14.0958 11.8118 13.9661 11.6821 13.7932 11.6821Z" fill="#3A643B"/>
<path d="M2.02158 10.3735C1.12819 10.3735 0.407715 11.094 0.407715 11.9874C0.407715 12.8808 1.12819 13.6013 2.02158 13.6013C2.91497 13.6013 3.63545 12.8808 3.63545 11.9874C3.63545 11.094 2.91497 10.3735 2.02158 10.3735ZM2.02158 12.9961C1.45961 12.9961 1.01291 12.5494 1.01291 11.9874C1.01291 11.4254 1.45961 10.9787 2.02158 10.9787C2.58355 10.9787 3.03025 11.4254 3.03025 11.9874C3.03025 12.535 2.56914 12.9961 2.02158 12.9961Z" fill="#3A643B"/>
</svg>
