<svg width="19" height="16" viewBox="0 0 19 16" fill="none" xmlns="http://www.w3.org/2000/svg">
<path d="M4.57622 0.536621V3.75636M14.7894 0.536621V3.75636M18.1649 14.5754C18.1649 15.2159 17.6457 15.7352 17.0051 15.7352H2.36048C1.71995 15.7352 1.20068 15.2159 1.20068 14.5754V3.46209C1.20068 2.82155 1.71995 2.30229 2.36048 2.30229H17.0051C17.6457 2.30229 18.1649 2.82155 18.1649 3.46209V14.5754ZM6.08656 6.48276H3.97468V8.59463H6.08656V6.48276ZM10.6911 8.59463H8.57926V6.48276H10.6911V8.59463ZM15.3909 8.59463H13.279V6.48276H15.3909V8.59463ZM6.06059 10.6719H3.94872V12.7838H6.06059V10.6719ZM10.6652 12.7838H8.5533V10.6719H10.6652V12.7838ZM15.365 12.7838H13.2531V10.6719H15.365V12.7838Z" stroke="#3A643B" stroke-width="0.506454" stroke-miterlimit="10"/>
</svg>
