<svg width="20" height="20" viewBox="0 0 20 20" fill="none" xmlns="http://www.w3.org/2000/svg">
<g clip-path="url(#clip0_2293_20544)">
<path d="M9.1763 16.6807C13.323 16.6807 16.6846 13.3191 16.6846 9.1724C16.6846 5.02566 13.323 1.66406 9.1763 1.66406C5.02956 1.66406 1.66797 5.02566 1.66797 9.1724C1.66797 13.3191 5.02956 16.6807 9.1763 16.6807Z" fill="#3A643B" fill-opacity="0.8"/>
<path d="M18.3267 15.7917C18.0517 15.2833 17.4683 15 16.685 15C16.0933 15 15.585 15.2417 15.285 15.6583C14.985 16.075 14.9183 16.6333 15.1017 17.1917C15.46 18.275 16.085 18.5167 16.4267 18.5583C16.4767 18.5667 16.5267 18.5667 16.585 18.5667C16.9517 18.5667 17.5183 18.4083 18.0683 17.5833C18.51 16.9417 18.5933 16.3 18.3267 15.7917Z" fill="#3A643B" fill-opacity="0.8"/>
</g>
<defs>
<clipPath id="clip0_2293_20544">
<rect width="20" height="20" fill="white"/>
</clipPath>
</defs>
</svg>
