<svg width="18" height="18" viewBox="0 0 18 18" fill="none" xmlns="http://www.w3.org/2000/svg">
<g clip-path="url(#clip0_2743_12307)">
<path fill-rule="evenodd" clip-rule="evenodd" d="M5.86841 5.10559C5.74654 4.89371 5.81869 4.62326 6.03041 4.50108C6.24213 4.37859 6.51258 4.45135 6.63477 4.66323C6.75695 4.8748 6.68449 5.14525 6.47292 5.26774C6.2612 5.38946 5.99044 5.31716 5.86841 5.10559ZM4.90757 6.83263C4.78509 7.0442 4.51464 7.11681 4.30306 6.99478C4.09149 6.87275 4.01889 6.60184 4.14122 6.39057C4.26325 6.1787 4.53355 6.10639 4.74543 6.22843C4.957 6.35061 5.0296 6.62152 4.90757 6.83263ZM3.89197 9.41358C3.64745 9.41358 3.44946 9.21543 3.44946 8.97122C3.44946 8.727 3.64761 8.52886 3.89197 8.52886C4.13619 8.52886 4.33418 8.727 4.33418 8.97122C4.33418 9.21543 4.13619 9.41358 3.89197 9.41358ZM4.90757 11.1093C5.02976 11.3212 4.957 11.5917 4.74543 11.7139C4.53355 11.836 4.26325 11.7633 4.14122 11.552C4.01873 11.3401 4.09149 11.0697 4.30306 10.9475C4.51464 10.8253 4.78509 10.8982 4.90757 11.1093ZM6.63461 13.2792C6.51243 13.4911 6.24198 13.5634 6.03026 13.441C5.81853 13.3189 5.74654 13.0487 5.86826 12.8368C5.99044 12.6253 6.26105 12.553 6.47277 12.675C6.68434 12.7975 6.7568 13.0676 6.63461 13.2792ZM9.05357 13.6903C9.05357 13.9347 8.85527 14.1327 8.61121 14.1327C8.36669 14.1327 8.16884 13.9345 8.16884 13.6903C8.16884 13.4461 8.36684 13.2479 8.61121 13.2479C8.85542 13.2479 9.05357 13.4461 9.05357 13.6903ZM11.3538 12.8368C11.4759 13.0487 11.4034 13.3189 11.1918 13.441C10.98 13.5635 10.7095 13.4911 10.5873 13.2792C10.4652 13.0676 10.5376 12.7975 10.7495 12.675C10.9611 12.5528 11.2317 12.6253 11.3538 12.8368ZM13.0812 11.5522C12.959 11.7634 12.6886 11.836 12.4768 11.714C12.2651 11.592 12.1928 11.3214 12.3148 11.1095C12.4369 10.8982 12.7078 10.8256 12.919 10.9477C13.1309 11.0698 13.2035 11.3403 13.0812 11.5522ZM13.7728 8.97122C13.7728 9.21558 13.5745 9.41358 13.3306 9.41358C13.0859 9.41358 12.8881 9.21543 12.8881 8.97122C12.8881 8.727 13.0861 8.52886 13.3306 8.52886C13.5745 8.5287 13.7728 8.72685 13.7728 8.97122ZM12.3148 6.83263C12.1927 6.62136 12.2651 6.35061 12.4768 6.22843C12.6886 6.10624 12.959 6.1787 13.0812 6.39057C13.2037 6.60184 13.1309 6.87259 12.919 6.99478C12.7078 7.11696 12.4369 7.0442 12.3148 6.83263ZM11.3538 5.10559C11.2315 5.31716 10.9611 5.38946 10.7495 5.26774C10.5376 5.14525 10.4653 4.8748 10.5873 4.66323C10.7095 4.45135 10.98 4.37875 11.1918 4.50108C11.4036 4.62326 11.4759 4.89371 11.3538 5.10559ZM8.16884 4.25199C8.16884 4.00823 8.36775 3.80962 8.61121 3.80962C8.85466 3.80962 9.05357 4.00838 9.05357 4.25199C9.05357 4.49559 8.85466 4.69435 8.61121 4.69435C8.36775 4.69435 8.16884 4.49574 8.16884 4.25199ZM9.44025 8.66934C9.34644 8.5072 9.14829 8.44359 8.97989 8.5133V5.58822C8.97989 5.38443 8.81484 5.21938 8.61121 5.21938C8.40757 5.21938 8.24252 5.38443 8.24252 5.58822V8.93507L6.11858 10.1616C5.94209 10.2632 5.88168 10.4885 5.98358 10.6649C6.05176 10.7831 6.17578 10.8493 6.3033 10.8493C6.36569 10.8493 6.42899 10.8334 6.48726 10.8002L8.24603 9.78486C8.26952 9.96577 8.42374 10.1055 8.61121 10.1055C8.81484 10.1055 8.97989 9.94045 8.97989 9.73696V9.36126L9.3051 9.17333C9.48159 9.07159 9.542 8.84583 9.44025 8.66934ZM8.61121 14.6783C11.6606 14.6783 14.1415 12.1977 14.1415 9.14816C14.1415 6.09892 11.6606 3.61773 8.61121 3.61773C5.56181 3.61773 3.08093 6.09892 3.08093 9.14816C3.08093 12.1977 5.56181 14.6783 8.61121 14.6783ZM8.61121 2.88067C5.15545 2.88067 2.34356 5.69225 2.34356 9.14816C2.34356 12.6041 5.15545 15.4157 8.61121 15.4157C12.0671 15.4157 14.8785 12.6041 14.8785 9.14816C14.8785 5.69225 12.0671 2.88067 8.61121 2.88067ZM8.61121 15.932C12.3516 15.932 15.3947 12.8887 15.3947 9.14816C15.3947 5.40762 12.3514 2.36432 8.61121 2.36432C4.87066 2.36432 1.82737 5.40777 1.82737 9.14816C1.82737 12.8886 4.87066 15.932 8.61121 15.932ZM8.61121 1.62695C4.46384 1.62695 1.08984 5.0011 1.08984 9.14816C1.08984 13.2952 4.46384 16.6694 8.61121 16.6694C12.7584 16.6694 16.132 13.2954 16.132 9.14816C16.132 5.00095 12.7583 1.62695 8.61121 1.62695Z" fill="#3A643B"/>
</g>
<defs>
<clipPath id="clip0_2743_12307">
<rect width="17.433" height="17.433" fill="white" transform="translate(0 0.537109)"/>
</clipPath>
</defs>
</svg>
