<svg width="35" height="34" viewBox="0 0 35 34" fill="none" xmlns="http://www.w3.org/2000/svg">
<circle cx="17.5" cy="17" r="17" fill="#E9F1E0"/>
<g clip-path="url(#clip0_2011_2066)">
<path d="M12.6436 10.1133V13.2012M22.4385 10.1133V13.2012M25.6758 23.5771C25.6758 24.1915 25.1778 24.6895 24.5635 24.6895H10.5186C9.90425 24.6895 9.40625 24.1915 9.40625 23.5771V12.9189C9.40625 12.3046 9.90425 11.8066 10.5186 11.8066H24.5635C25.1778 11.8066 25.6758 12.3046 25.6758 12.9189V23.5771ZM14.092 15.8159H12.0667V17.8413H14.092V15.8159ZM18.5081 17.8413H16.4827V15.8159H18.5081V17.8413ZM23.0154 17.8413H20.99V15.8159H23.0154V17.8413ZM14.0671 19.8335H12.0417V21.8589H14.0671V19.8335ZM18.4832 21.8589H16.4578V19.8335H18.4832V21.8589ZM22.9905 21.8589H20.9651V19.8335H22.9905V21.8589Z" stroke="#A0A0A0" stroke-width="0.8" stroke-miterlimit="10"/>
</g>
<defs>
<clipPath id="clip0_2011_2066">
<rect width="17" height="17" fill="white" transform="translate(9 9)"/>
</clipPath>
</defs>
</svg>
